<svg width="162" height="159" viewBox="0 0 162 159" fill="none" xmlns="http://www.w3.org/2000/svg">
<g clip-path="url(#clip0_60_355)">
<mask id="mask0_60_355" style="mask-type:luminance" maskUnits="userSpaceOnUse" x="16" y="-20" width="130" height="131">
<path d="M81.1036 110.613C116.843 110.613 145.815 81.5634 145.815 45.7287C145.815 9.89403 116.843 -19.1557 81.1036 -19.1557C45.3643 -19.1557 16.3918 9.89403 16.3918 45.7287C16.3918 81.5634 45.3643 110.613 81.1036 110.613Z" fill="white"/>
</mask>
<g mask="url(#mask0_60_355)">
<path d="M70.1154 75.4022C68.2539 74.3716 67.1025 72.1425 66.4056 70.0946V64.0618C66.4009 62.4514 65.7609 60.9084 64.6252 59.7697C63.4896 58.6311 61.9507 57.9893 60.3446 57.9846H46.9038C45.2978 57.9893 43.7589 58.6311 42.6232 59.7697C41.4876 60.9084 40.8475 62.4514 40.8429 64.0618V70.8465C40.1327 72.6688 39.0431 74.4999 37.4066 75.4022C35.3863 76.5167 37.9271 78.3699 40.8429 79.8959V82.6867C40.8429 86.0305 43.569 94.9559 46.9038 94.9559H60.3446C63.6795 94.9559 66.4056 86.0305 66.4056 82.6867V80.033C69.4316 78.4849 72.2018 76.5521 70.1154 75.4022Z" fill="#F0C79C"/>
<path d="M53.9925 66.3219L53.5514 66.2599C40.7282 66.2599 30.6575 58.0112 30.6575 45.1493V27.7053C30.6738 21.5089 33.1363 15.571 37.5066 11.1899C41.8768 6.80874 47.7994 4.34081 53.9793 4.32563C60.1592 4.34081 66.0817 6.80874 70.452 11.1899C74.8223 15.571 77.2848 21.5089 77.3011 27.7053V45.1449C77.3143 58.0068 66.8202 66.3219 53.9925 66.3219Z" fill="#FCD0A3"/>
<path d="M66.1675 0.950923C64.0653 0.31872 61.8822 -0.00164797 59.6875 -5.08224e-06H48.3023C46.6842 -0.00154618 45.0707 0.171951 43.4897 0.517477C38.4049 1.63518 33.8521 4.45764 30.5825 8.5191C27.313 12.5806 25.5221 17.6383 25.5054 22.8577V29.669C26.6752 29.0698 27.9566 28.7211 29.268 28.6449C30.5795 28.5688 31.8924 28.7669 33.1235 29.2267C33.056 28.5551 33.0221 27.8805 33.022 27.2055C33.022 19.5317 37.3449 13.313 42.6824 13.313C43.2143 13.3121 43.7444 13.3744 44.2616 13.4988C45.2994 14.2294 46.426 14.8239 47.6141 15.268C49.8439 16.0983 52.2053 16.5163 54.5838 16.5019C57.3154 16.5282 60.0216 15.9735 62.5239 14.8743C63.2342 14.5583 63.9173 14.184 64.5662 13.7553C64.9034 13.4198 65.3078 13.1599 65.7527 12.9929C66.1975 12.8259 66.6727 12.7556 67.1468 12.7867C72.4799 12.7867 76.6219 19.5405 76.6219 27.2143C76.6219 27.7097 76.6219 28.1962 76.569 28.6783C76.8621 28.6482 77.1566 28.6334 77.4512 28.6341C79.2366 28.6309 80.9858 29.1388 82.4932 30.0981V22.8577C82.4775 17.9329 80.8816 13.1439 77.9416 9.19872C75.0015 5.25359 70.8734 2.3618 66.1675 0.950923Z" fill="#393D47"/>
<path d="M29.943 44.4859C34.3623 44.4859 37.9449 40.8937 37.9449 36.4627C37.9449 32.0316 34.3623 28.4395 29.943 28.4395C25.5237 28.4395 21.9412 32.0316 21.9412 36.4627C21.9412 40.8937 25.5237 44.4859 29.943 44.4859Z" fill="#FCD0A3"/>
<path d="M77.5836 44.4859C82.0029 44.4859 85.5855 40.8937 85.5855 36.4627C85.5855 32.0316 82.0029 28.4395 77.5836 28.4395C73.1643 28.4395 69.5818 32.0316 69.5818 36.4627C69.5818 40.8937 73.1643 44.4859 77.5836 44.4859Z" fill="#FCD0A3"/>
<path d="M37.4066 75.4022C37.4066 75.4022 37.2786 69.2985 40.9355 64.4421C40.9355 64.4421 40.2518 68.896 42.153 71.8284L58.267 92.3774L48.4609 115.708L37.4066 75.4022Z" fill="#82515E"/>
<path d="M64.3986 100.007L39.2241 74.2257C39.2241 74.2257 35.8584 77.1138 28.2932 78.14C28.2932 78.14 2.9246 80.6831 0 105.536V148.779H70.6404L64.3986 100.007Z" fill="#82515E"/>
<path d="M68.4481 74.2257C68.4481 74.2257 72.0079 77.1138 79.8113 78.14C79.8113 78.14 104.955 82.5408 108.109 105.536V148.779H37.4685L40.3931 121.286L68.4481 74.2257Z" fill="#825152"/>
<path d="M66.3705 64.8579C66.3705 64.8579 68.9289 67.4763 68.0511 72.9563L66.344 74.4247C66.344 74.4247 66.591 71.0235 66.3705 64.8579Z" fill="#5B3736"/>
<path d="M66.3705 64.7871C66.3705 64.7871 68.6334 67.5736 67.3189 72.5626L40.6798 117.031L31.8972 132.878L74.0503 142.122L70.9625 77.848C70.9625 77.848 70.6184 66.8394 66.3705 64.7871Z" fill="#825152"/>
<g style="mix-blend-mode:multiply" opacity="0.2">
<path d="M70.6404 76.185C70.6404 76.185 69.5685 105.73 60.5918 119.915C60.5918 119.915 74.8354 103.97 70.6404 76.185Z" fill="#437797"/>
</g>
<g style="mix-blend-mode:multiply" opacity="0.41">
<path d="M37.9756 76.185C37.9756 76.185 45.5848 92.1297 50.565 97.4151C50.543 97.4151 39.7092 85.8712 37.9756 76.185Z" fill="#437797"/>
</g>
<path d="M57.6626 14.0119C57.6626 14.9318 57.8876 21.0443 56.4496 20.9824C55.4262 20.9382 53.9528 19.8324 52.9559 19.4742C51.4561 18.8981 49.8682 18.5868 48.2624 18.5542C44.3132 18.5554 40.526 20.1289 37.7334 22.9289C34.9409 25.7289 33.3715 29.5262 33.3704 33.486C33.3699 34.0505 33.4009 34.6145 33.463 35.1756C30.7044 31.806 29.1401 27.6132 29.0158 23.2555C28.8916 18.8979 30.2144 14.6223 32.7765 11.1002C35.3386 7.5781 38.9948 5.00902 43.1711 3.79644C47.3473 2.58385 51.807 2.79644 55.8496 4.40082C57.0498 7.46213 57.6648 10.7225 57.6626 14.0119Z" fill="#393D47"/>
<path d="M133.27 24.2819H126.133C122.052 24.2819 118.744 27.5988 118.744 31.6903V72.1646C118.744 76.2561 122.052 79.573 126.133 79.573H133.27C137.351 79.573 140.659 76.2561 140.659 72.1646V31.6903C140.659 27.5988 137.351 24.2819 133.27 24.2819Z" fill="#393D47"/>
<path d="M85.5502 79.573H92.6875C96.7681 79.573 100.076 76.2561 100.076 72.1646V31.6903C100.076 27.5988 96.7681 24.2819 92.6875 24.2819H85.5502C81.4695 24.2819 78.1615 27.5988 78.1615 31.6903V72.1646C78.1615 76.2561 81.4695 79.573 85.5502 79.573Z" fill="#393D47"/>
<path d="M113.914 100.662H103.825C101.881 100.657 100.018 99.8797 98.6435 98.5002C97.2693 97.1207 96.4965 95.2514 96.4941 93.3018V65.0835C96.4941 61.0409 99.7893 60.8286 103.825 60.8286H113.914C117.946 60.8286 121.245 61.0409 121.245 65.0835V93.3018C121.242 95.2511 120.468 97.1197 119.095 98.4989C117.721 99.8781 115.858 100.656 113.914 100.662Z" fill="#F0C79C"/>
<path d="M135.612 40.3283C135.612 58.1439 123.64 69.4931 108.867 69.4931C94.0945 69.4931 82.1226 58.1439 82.1226 40.3283C82.1226 22.5127 94.0989 8.06744 108.867 8.06744C123.636 8.06744 135.612 22.5349 135.612 40.3283Z" fill="#F7CFA2"/>
<path d="M123.058 3.75064C118.806 1.6755 114.139 0.599991 109.41 0.605936H109.185C103.804 0.604168 98.5167 2.01511 93.8485 4.6984C89.1803 7.38168 85.2943 11.2438 82.5769 15.9004L82.4798 16.0729C82.3387 16.3206 82.1931 16.5639 82.0608 16.8116C79.5151 21.4329 78.1838 26.6276 78.1922 31.907C78.1922 38.2318 79.9081 46.3567 83.1327 51.2795L83.2871 33.6099C90.1835 35.9244 97.669 35.7557 104.455 33.1328C111.241 30.5099 116.902 25.5969 120.464 19.2397C121.301 22.6605 123.082 25.7755 125.604 28.2273C128.125 30.6791 131.285 32.3684 134.721 33.1012V50.2578C138.289 45.3357 140.339 39.4718 140.615 33.3931C140.637 32.9022 140.65 32.4068 140.65 31.9115C140.652 26.3622 139.182 20.9122 136.392 16.12C133.601 11.3278 129.59 7.36564 124.77 4.63965" fill="#393D47"/>
<path d="M122.573 71.2446L145.815 82.1073C145.815 82.1073 157.774 86.5037 159.141 105.018L162 152.507L85.175 159L122.573 71.2446Z" fill="#0095D6"/>
<path d="M110.508 99.8742C110.103 100.432 109.992 100.37 110.27 99.7371C110.27 99.7371 121.183 74.7653 121.183 69.4799L122.149 70.0327C122.472 70.244 122.749 70.518 122.965 70.8386C123.18 71.1592 123.329 71.5199 123.402 71.8992L124.434 79.3916C124.499 80.186 124.299 80.9794 123.865 81.6473L110.508 99.8742Z" fill="#E7442B"/>
<path d="M96.5957 71.5365L73.9355 82.5938C73.9355 82.5938 60.9799 87.1008 60.6094 105.505L57.751 152.994L127.712 155.846C134.946 156.138 136.737 153.011 133.186 146.682L96.5957 71.5365Z" fill="#008FD1"/>
<path d="M110.672 99.9362C111.139 100.458 111.276 100.378 110.976 99.7327C110.976 99.7327 99.507 75.7206 96.5956 69.7762L96.3309 70.2583C95.9503 71.0096 95.6869 71.8152 95.5501 72.6467L94.5179 80.4753C94.4587 81.2733 94.7048 82.064 95.2061 82.6867L110.672 99.9362Z" fill="#E51E2B"/>
</g>
</g>
<defs>
<clipPath id="clip0_60_355">
<rect width="162" height="159" fill="white"/>
</clipPath>
</defs>
</svg>
