<svg width="113" height="172" viewBox="0 0 113 172" fill="none" xmlns="http://www.w3.org/2000/svg">
<g clip-path="url(#clip0_60_336)">
<mask id="mask0_60_336" style="mask-type:luminance" maskUnits="userSpaceOnUse" x="-8" y="-10" width="133" height="132">
<path d="M58.5155 121.933C94.9204 121.933 124.433 92.4579 124.433 56.0981C124.433 19.7382 94.9204 -9.73729 58.5155 -9.73729C22.1105 -9.73729 -7.40161 19.7382 -7.40161 56.0981C-7.40161 92.4579 22.1105 121.933 58.5155 121.933Z" fill="white"/>
</mask>
<g mask="url(#mask0_60_336)">
<path d="M87.094 78.352H24.7248C16.6257 78.352 10.0601 84.9095 10.0601 92.9985V122.015C10.0601 130.104 16.6257 136.661 24.7248 136.661H87.094C95.1931 136.661 101.759 130.104 101.759 122.015V92.9985C101.759 84.9095 95.1931 78.352 87.094 78.352Z" fill="#755A4E"/>
<path d="M60.8727 68.3759H49.9375C45.5486 68.3759 41.9907 71.9294 41.9907 76.3129V103.447C41.9907 107.831 45.5486 111.384 49.9375 111.384H60.8727C65.2615 111.384 68.8194 107.831 68.8194 103.447V76.3129C68.8194 71.9294 65.2615 68.3759 60.8727 68.3759Z" fill="#F0C79C"/>
<path d="M55.4074 81.0741C71.4181 81.0741 84.3973 65.4789 84.3973 46.2414C84.3973 27.0038 71.4181 11.4087 55.4074 11.4087C39.3967 11.4087 26.4175 27.0038 26.4175 46.2414C26.4175 65.4789 39.3967 81.0741 55.4074 81.0741Z" fill="#F7CFA2"/>
<path d="M72.6158 7.70769C75.719 3.32854 79.8167 2.82233 79.8167 2.82233C77.0196 2.31613 74.2272 3.87295 72.109 5.58258C71.8317 3.67238 71.3153 0.32951 71.3009 -0.009552C70.9806 0.362939 71.3392 4.65136 71.2627 6.29891L70.7845 6.73826C66.1798 4.50162 61.1255 3.34208 56.0051 3.34764H55.7612C49.9279 3.34718 44.1961 4.87225 39.136 7.77112C34.076 10.67 29.8642 14.8416 26.9195 19.8709C26.8861 19.933 26.8526 19.9951 26.8143 20.0572C26.6613 20.3198 26.5035 20.5825 26.3362 20.8547C23.3744 26.2285 21.9333 32.3064 22.1674 38.4361C22.4016 44.5659 24.3022 50.5163 27.6654 55.6492V38.9874C35.1407 41.4847 43.2538 41.3012 50.6082 38.4684C57.9626 35.6356 64.0982 30.3307 67.9587 23.4669C68.8652 27.1603 70.796 30.5237 73.5294 33.1709C76.2628 35.8182 79.6882 37.6421 83.4123 38.4334V56.9577C87.28 51.6432 89.5011 45.3119 89.8004 38.7486C89.8243 38.2185 89.8386 37.6837 89.8386 37.1488C89.84 31.1569 88.2457 25.2724 85.2192 20.0987C82.1927 14.9251 77.8429 10.6486 72.6158 7.70769Z" fill="#393D47"/>
<path d="M70.2682 79.6175L95.4569 91.351C95.4569 91.351 108.419 96.0978 109.906 116.088L113 167.363L18.5759 171.484L70.2682 79.6175Z" fill="#3E907F"/>
<path d="M91.0389 83.4236H83.9193C83.0822 83.4236 82.4036 84.1014 82.4036 84.9374V148.457C82.4036 149.293 83.0822 149.971 83.9193 149.971H91.0389C91.876 149.971 92.5546 149.293 92.5546 148.457V84.9374C92.5546 84.1014 91.876 83.4236 91.0389 83.4236Z" fill="#755A4E"/>
<g style="mix-blend-mode:multiply" opacity="0.19">
<path d="M70.8994 79.9375L77.3256 82.8696L49.8801 115.744L70.8994 79.9375Z" fill="#3E907F"/>
</g>
<path d="M57.1526 103.509C56.6027 104.011 56.4593 103.896 56.8466 103.256C56.8466 103.256 68.762 83.4236 68.762 77.7169L69.8043 78.3138C70.154 78.5415 70.4546 78.8366 70.6886 79.1818C70.9226 79.5271 71.0853 79.9155 71.1671 80.3243L72.262 88.4188C72.2948 88.83 72.2382 89.2434 72.0963 89.6308C71.9544 90.0182 71.7304 90.3704 71.4396 90.6633L57.1526 103.509Z" fill="#F5BF27"/>
<path d="M42.7414 80.2527L17.5431 91.8667C17.5431 91.8667 3.5048 96.733 3.09838 116.604L0 167.879L94.4241 172L42.7414 80.2527Z" fill="#008C80"/>
<path d="M26.3074 83.4236H19.1878C18.3507 83.4236 17.6721 84.1014 17.6721 84.9374V148.457C17.6721 149.293 18.3507 149.971 19.1878 149.971H26.3074C27.1445 149.971 27.8231 149.293 27.8231 148.457V84.9374C27.8231 84.1014 27.1445 83.4236 26.3074 83.4236Z" fill="#755A4E"/>
<g style="mix-blend-mode:multiply" opacity="0.19">
<path d="M33.9338 84.3357L86.525 157.578L42.5022 80.3338L33.9338 84.3357Z" fill="#3E907F"/>
</g>
<path d="M55.3071 103.476C55.9 103.954 56.0817 103.796 55.7088 103.132C55.7088 103.132 45.1226 84.331 41.9477 77.9174L41.6991 78.4953C41.3576 79.3452 41.1137 80.2312 40.9723 81.1361L39.8535 89.5936C39.8231 90.0092 39.8883 90.4262 40.0441 90.8127C40.1999 91.1993 40.4422 91.5451 40.7524 91.8237L55.3071 103.476Z" fill="#F5BF27"/>
</g>
</g>
<defs>
<clipPath id="clip0_60_336">
<rect width="113" height="172" fill="white"/>
</clipPath>
</defs>
</svg>
