<svg width="126" height="160" viewBox="0 0 126 160" fill="none" xmlns="http://www.w3.org/2000/svg">
<g clip-path="url(#clip0_60_384)">
<mask id="mask0_60_384" style="mask-type:luminance" maskUnits="userSpaceOnUse" x="-8" y="-13" width="134" height="133">
<path d="M59.0376 119.15C95.6061 119.15 125.251 89.7906 125.251 53.5743C125.251 17.358 95.6061 -12.0011 59.0376 -12.0011C22.4691 -12.0011 -7.17554 17.358 -7.17554 53.5743C-7.17554 89.7906 22.4691 119.15 59.0376 119.15Z" fill="white"/>
</mask>
<g mask="url(#mask0_60_384)">
<path d="M76.3425 81.0869C74.3156 79.9834 73.0621 77.586 72.308 75.3789V68.8908C72.3029 67.1594 71.6059 65.5005 70.3693 64.2766C69.1326 63.0528 67.457 62.3637 65.7088 62.3599H51.0695C49.3216 62.3649 47.6468 63.0545 46.4104 64.278C45.174 65.5016 44.4766 67.1598 44.4702 68.8908V76.1875C43.697 78.1473 42.5154 80.1166 40.7336 81.0869C38.529 82.2856 41.2955 84.2786 44.4702 85.9197V88.9164C44.4702 92.5124 47.4433 102.111 51.0695 102.111H65.7088C69.3398 102.111 72.308 92.5124 72.308 88.9164V86.0624C75.6028 84.4023 78.6143 82.3236 76.3425 81.0869Z" fill="#F0C79C"/>
<path d="M84.181 29.7958C84.181 15.9066 72.8132 4.64727 58.7903 4.64727C44.7675 4.64727 33.3997 15.9066 33.3997 29.7958V48.5465C33.3997 62.4357 44.7675 73.695 58.7903 73.695C72.8132 73.695 84.181 62.4357 84.181 48.5465V29.7958Z" fill="#FCD0A3"/>
<path d="M72.0439 1.02269C69.755 0.342782 67.378 -0.00176354 64.9884 3.31503e-06H52.592C50.8302 -0.00165407 49.0734 0.184935 47.3521 0.556532C41.8157 1.75857 36.8585 4.794 33.2986 9.16192C29.7387 13.5298 27.7887 18.9692 27.7705 24.5825V31.9077C29.0443 31.2633 30.4394 30.8883 31.8673 30.8064C33.2953 30.7245 34.7248 30.9376 36.0652 31.4321C35.9917 30.7097 35.9548 29.9842 35.9547 29.2583C35.9547 21.0054 40.6616 14.3176 46.4731 14.3176C47.0522 14.3166 47.6294 14.3836 48.1926 14.5173C49.3224 15.3031 50.5491 15.9425 51.8428 16.42C54.2705 17.313 56.8417 17.7626 59.4314 17.7471C62.4057 17.7754 65.3522 17.1788 68.0767 15.9967C68.8501 15.6568 69.5939 15.2543 70.3004 14.7932C71.1342 14.4822 72.0174 14.3211 72.9084 14.3176C78.7152 14.3176 83.4268 21.0054 83.4268 29.2583C83.4268 29.791 83.4268 30.3142 83.3692 30.8327C83.6883 30.8004 84.009 30.7845 84.3298 30.7852C86.2649 30.79 88.1587 31.3393 89.7907 32.3691V24.5825C89.7755 19.2897 88.0421 14.142 84.8464 9.89964C81.6508 5.65728 77.1623 2.5451 72.0439 1.02269Z" fill="#393D47"/>
<path d="M32.6022 47.8426C37.4139 47.8426 41.3147 43.9794 41.3147 39.214C41.3147 34.4485 37.4139 30.5854 32.6022 30.5854C27.7904 30.5854 23.8896 34.4485 23.8896 39.214C23.8896 43.9794 27.7904 47.8426 32.6022 47.8426Z" fill="#FCD0A3"/>
<path d="M84.474 47.8426C89.2858 47.8426 93.1865 43.9794 93.1865 39.214C93.1865 34.4485 89.2858 30.5854 84.474 30.5854C79.6622 30.5854 75.7615 34.4485 75.7615 39.214C75.7615 43.9794 79.6622 47.8426 84.474 47.8426Z" fill="#FCD0A3"/>
<path d="M40.7335 81.0869C40.7335 81.0869 40.5942 74.5227 44.5758 69.3046C44.5758 69.3046 43.8362 74.0898 45.9063 77.2483L63.437 99.343L52.7504 124.434L40.7335 81.0869Z" fill="#3490BC"/>
<path d="M70.0987 107.548L42.722 79.8264C42.722 79.8264 39.0574 82.9277 30.8252 84.0313C30.8252 84.0313 3.20355 86.7664 0.0144043 113.494V160H76.9189L70.0987 107.548Z" fill="#3490BC"/>
<path d="M74.5269 79.8264C74.5269 79.8264 78.4029 82.9277 86.9041 84.0313C86.9041 84.0313 114.281 88.788 117.715 113.494V160H40.8008L43.9899 130.433L74.5269 79.8264Z" fill="#5494BC"/>
<path d="M72.2697 69.7518C72.2697 69.7518 75.0506 72.563 74.0948 78.4565L72.2361 80.0357C72.2361 80.0357 72.5002 76.3778 72.2697 69.7518Z" fill="#437797"/>
<path d="M72.2697 69.6709C72.2697 69.6709 74.7337 72.6676 73.2976 78.0379L44.2975 125.857L34.7349 142.9L80.6316 152.846L77.3032 83.7173C77.3032 83.7173 76.8902 71.8828 72.2697 69.6709Z" fill="#5494BC"/>
<g style="mix-blend-mode:multiply" opacity="0.06">
<path d="M76.9188 81.9288C76.9188 81.9288 75.7469 113.703 65.9729 128.963C65.9729 128.963 81.4864 111.81 76.9188 81.9288Z" fill="#437797"/>
</g>
<g style="mix-blend-mode:multiply" opacity="0.07">
<path d="M41.3291 81.9288C41.3291 81.9288 49.6142 99.0766 55.0319 104.761C55.0319 104.761 43.2407 92.3459 41.3291 81.9288Z" fill="#437797"/>
</g>
<path d="M119.415 99.7711V100.175C119.406 102.854 118.328 105.421 116.414 107.315C114.501 109.209 111.909 110.276 109.204 110.283H52.9139C50.6163 110.287 48.3865 109.513 46.5933 108.091C48.3908 107.604 49.9771 106.546 51.1078 105.08C52.2386 103.613 52.8512 101.819 52.8512 99.9733C52.8512 98.1279 52.2386 96.3336 51.1078 94.8669C49.9771 93.4001 48.3908 92.3422 46.5933 91.856C48.3865 90.4334 50.6163 89.6598 52.9139 89.6632H109.204C111.909 89.6707 114.501 90.7379 116.414 92.6318C118.328 94.5256 119.406 97.0922 119.415 99.7711Z" fill="#EE3240"/>
<path d="M111.764 99.9756C111.76 100.783 111.435 101.556 110.858 102.127C110.282 102.698 109.501 103.021 108.685 103.025H53.4518C53.0791 103.025 52.7095 102.957 52.3616 102.825C52.6885 101.909 52.851 100.943 52.8419 99.9709C52.8489 98.9993 52.6864 98.0337 52.3616 97.1169C52.7078 96.9845 53.0759 96.9168 53.447 96.9171H108.681C109.499 96.9196 110.282 97.2428 110.86 97.816C111.438 98.3892 111.763 99.1657 111.764 99.9756Z" fill="#CBCBCA"/>
<path d="M53.1829 120.396V120.819C53.1968 123.492 54.2751 126.051 56.1836 127.94C58.0921 129.829 60.6764 130.896 63.3747 130.908H119.665C121.963 130.912 124.192 130.138 125.986 128.715C124.188 128.229 122.602 127.171 121.471 125.705C120.34 124.238 119.728 122.444 119.728 120.598C119.728 118.753 120.34 116.959 121.471 115.492C122.602 114.025 124.188 112.967 125.986 112.481C124.192 111.058 121.963 110.285 119.665 110.288H63.3747C60.673 110.301 58.0859 111.37 56.1769 113.263C54.2679 115.157 53.1917 117.72 53.1829 120.396Z" fill="#498E77"/>
<path d="M60.834 120.601C60.8378 121.408 61.1634 122.181 61.7399 122.752C62.3164 123.323 63.0973 123.646 63.9127 123.65H119.146C119.519 123.65 119.889 123.582 120.237 123.45C119.902 122.535 119.731 121.569 119.732 120.596C119.725 119.624 119.888 118.659 120.213 117.742C119.866 117.609 119.498 117.542 119.127 117.542H63.8934C63.0798 117.551 62.3024 117.877 61.7297 118.449C61.157 119.022 60.8352 119.795 60.834 120.601Z" fill="#CBCBCA"/>
</g>
</g>
<defs>
<clipPath id="clip0_60_384">
<rect width="126" height="160" fill="white"/>
</clipPath>
</defs>
</svg>
